<svg width="12" height="13" viewBox="0 0 12 13" fill="none" xmlns="http://www.w3.org/2000/svg">
<path d="M6 5.79844C5.84087 5.79844 5.68826 5.86165 5.57574 5.97417C5.46322 6.08669 5.4 6.23931 5.4 6.39844V8.79844C5.4 8.95757 5.46322 9.11018 5.57574 9.2227C5.68826 9.33522 5.84087 9.39844 6 9.39844C6.15913 9.39844 6.31174 9.33522 6.42426 9.2227C6.53679 9.11018 6.6 8.95757 6.6 8.79844V6.39844C6.6 6.23931 6.53679 6.08669 6.42426 5.97417C6.31174 5.86165 6.15913 5.79844 6 5.79844ZM6.228 3.44644C6.08192 3.38643 5.91808 3.38643 5.772 3.44644C5.69835 3.47499 5.63106 3.51781 5.574 3.57244C5.521 3.63076 5.47839 3.69773 5.448 3.77044C5.41441 3.84164 5.39797 3.91973 5.4 3.99844C5.39954 4.0774 5.41468 4.15568 5.44454 4.22878C5.4744 4.30188 5.51839 4.36837 5.574 4.42444C5.63232 4.47744 5.69929 4.52005 5.772 4.55044C5.8629 4.58778 5.96158 4.60223 6.05937 4.5925C6.15716 4.58278 6.25106 4.54919 6.33283 4.49468C6.41459 4.44017 6.48172 4.36641 6.52831 4.27988C6.57489 4.19335 6.59951 4.09671 6.6 3.99844C6.59779 3.83958 6.53564 3.68742 6.426 3.57244C6.36894 3.51781 6.30165 3.47499 6.228 3.44644ZM6 0.398438C4.81331 0.398437 3.65327 0.750331 2.66658 1.40962C1.67989 2.06891 0.910851 3.00598 0.456725 4.10234C0.0025997 5.19869 -0.11622 6.40509 0.115291 7.56898C0.346802 8.73286 0.918247 9.80196 1.75736 10.6411C2.59648 11.4802 3.66557 12.0516 4.82946 12.2831C5.99334 12.5147 7.19974 12.3958 8.2961 11.9417C9.39246 11.4876 10.3295 10.7186 10.9888 9.73186C11.6481 8.74516 12 7.58512 12 6.39844C12 5.61051 11.8448 4.83029 11.5433 4.10234C11.2417 3.37438 10.7998 2.71295 10.2426 2.1558C9.68549 1.59864 9.02405 1.15669 8.2961 0.85516C7.56815 0.553632 6.78793 0.398438 6 0.398438ZM6 11.1984C5.05065 11.1984 4.12262 10.9169 3.33326 10.3895C2.54391 9.86206 1.92868 9.1124 1.56538 8.23532C1.20208 7.35823 1.10702 6.39311 1.29223 5.462C1.47744 4.53089 1.9346 3.67562 2.60589 3.00432C3.27718 2.33303 4.13246 1.87588 5.06357 1.69067C5.99468 1.50546 6.9598 1.60051 7.83688 1.96382C8.71397 2.32712 9.46362 2.94234 9.99105 3.7317C10.5185 4.52106 10.8 5.44909 10.8 6.39844C10.8 7.67147 10.2943 8.89237 9.39411 9.79255C8.49394 10.6927 7.27304 11.1984 6 11.1984Z" fill="#747474"/>
</svg>
