<svg width="17" height="18" viewBox="0 0 17 18" fill="none" xmlns="http://www.w3.org/2000/svg">
<path d="M6.83328 13.6252L5.35828 15.0586C4.9715 15.4453 4.44693 15.6626 3.89995 15.6626C3.35296 15.6626 2.82839 15.4453 2.44161 15.0586C2.05484 14.6718 1.83755 14.1472 1.83755 13.6002C1.83755 13.0533 2.05484 12.5287 2.44161 12.1419L6.22495 8.35024C6.59629 7.97769 7.09663 7.76214 7.62246 7.74818C8.14828 7.73422 8.65936 7.92292 9.04995 8.27524L9.14995 8.35857C9.30797 8.51328 9.52098 8.59888 9.74212 8.59654C9.96325 8.59419 10.1744 8.5041 10.3291 8.34607C10.4838 8.18805 10.5694 7.97504 10.5671 7.7539C10.5647 7.53277 10.4746 7.32162 10.3166 7.16691C10.2696 7.1061 10.2195 7.04769 10.1666 6.99191C9.45524 6.373 8.53522 6.04761 7.59292 6.08165C6.65061 6.1157 5.75647 6.50662 5.09161 7.17524L1.25828 10.9669C0.606909 11.6759 0.254629 12.6091 0.275007 13.5717C0.295386 14.5343 0.686846 15.4518 1.36764 16.1325C2.04843 16.8133 2.96591 17.2048 3.92848 17.2252C4.89106 17.2456 5.82428 16.8933 6.53328 16.2419L7.97495 14.8336C8.11729 14.6783 8.19554 14.4748 8.19395 14.2642C8.19236 14.0535 8.11105 13.8513 7.96637 13.6982C7.8217 13.545 7.62439 13.4524 7.41417 13.4389C7.20394 13.4253 6.99639 13.4919 6.83328 13.6252V13.6252ZM15.7416 1.75857C15.0406 1.06191 14.0924 0.670898 13.1041 0.670898C12.1158 0.670898 11.1676 1.06191 10.4666 1.75857L9.02495 3.16691C8.8826 3.3222 8.80435 3.52564 8.80594 3.7363C8.80753 3.94695 8.88884 4.14919 9.03352 4.30231C9.1782 4.45544 9.3755 4.54809 9.58572 4.56162C9.79595 4.57515 10.0035 4.50856 10.1666 4.37524L11.6083 2.94191C11.9951 2.55513 12.5196 2.33785 13.0666 2.33785C13.6136 2.33785 14.1382 2.55513 14.5249 2.94191C14.9117 3.32868 15.129 3.85326 15.129 4.40024C15.129 4.94722 14.9117 5.4718 14.5249 5.85857L10.7416 9.65024C10.3703 10.0228 9.86993 10.2383 9.3441 10.2523C8.81827 10.2663 8.3072 10.0776 7.91661 9.72524L7.81661 9.64191C7.65859 9.4872 7.44558 9.4016 7.22444 9.40394C7.0033 9.40629 6.79216 9.49638 6.63745 9.65441C6.48274 9.81243 6.39714 10.0254 6.39948 10.2466C6.40183 10.4677 6.49192 10.6789 6.64995 10.8336C6.71048 10.8955 6.77447 10.9539 6.84161 11.0086C7.55384 11.6256 8.47347 11.9498 9.4152 11.9158C10.3569 11.8817 11.2508 11.4921 11.9166 10.8252L15.7083 7.03357C16.4094 6.33697 16.8064 5.39127 16.8127 4.40295C16.8189 3.41463 16.4339 2.46398 15.7416 1.75857V1.75857Z" fill="white"/>
</svg>
