<svg width="16" height="17" viewBox="0 0 16 17" fill="none" xmlns="http://www.w3.org/2000/svg">
<path d="M6.4 0.5H0.8C0.32 0.5 0 0.82 0 1.3V6.9C0 7.38 0.32 7.7 0.8 7.7H6.4C6.88 7.7 7.2 7.38 7.2 6.9V1.3C7.2 0.82 6.88 0.5 6.4 0.5ZM6.4 9.3H0.8C0.32 9.3 0 9.62 0 10.1V15.7C0 16.18 0.32 16.5 0.8 16.5H6.4C6.88 16.5 7.2 16.18 7.2 15.7V10.1C7.2 9.62 6.88 9.3 6.4 9.3ZM15.2 0.5H9.6C9.12 0.5 8.8 0.82 8.8 1.3V6.9C8.8 7.38 9.12 7.7 9.6 7.7H15.2C15.68 7.7 16 7.38 16 6.9V1.3C16 0.82 15.68 0.5 15.2 0.5ZM15.2 9.3H9.6C9.12 9.3 8.8 9.62 8.8 10.1V15.7C8.8 16.18 9.12 16.5 9.6 16.5H15.2C15.68 16.5 16 16.18 16 15.7V10.1C16 9.62 15.68 9.3 15.2 9.3Z" fill="#1D1D1D"/>
</svg>
