<svg width="20" height="20" viewBox="0 0 20 20" fill="none" xmlns="http://www.w3.org/2000/svg">
<g clip-path="url(#clip0_889_25307)">
<path d="M15.8133 9.66667C16.1452 9.26101 16.3304 8.73337 16.3333 8.18518C16.3333 7.59582 16.1226 7.03058 15.7475 6.61384C15.3725 6.19709 14.8638 5.96296 14.3333 5.96296H10.88C10.9865 5.62828 11.0193 5.27012 10.9756 4.91846C10.9319 4.56681 10.8131 4.2319 10.629 3.94177C10.4449 3.65163 10.2009 3.41472 9.91753 3.25087C9.63411 3.08702 9.31949 3.001 9 3H5C4.46957 3 3.96086 3.23413 3.58579 3.65087C3.21071 4.06762 3 4.63285 3 5.22222C3.00294 5.77041 3.18814 6.29805 3.52 6.7037C3.19203 7.11113 3.01071 7.63857 3.01071 8.18518C3.01071 8.7318 3.19203 9.25924 3.52 9.66667C3.19203 10.0741 3.01071 10.6015 3.01071 11.1481C3.01071 11.6948 3.19203 12.2222 3.52 12.6296C3.18814 13.0353 3.00294 13.5629 3 14.1111C3 14.7005 3.21071 15.2657 3.58579 15.6825C3.96086 16.0992 4.46957 16.3333 5 16.3333H14.3333C14.7185 16.331 15.0949 16.2052 15.4173 15.971C15.7396 15.7368 15.9943 15.4041 16.1506 15.0129C16.3069 14.6218 16.3582 14.1888 16.2984 13.766C16.2386 13.3432 16.0701 12.9486 15.8133 12.6296C16.1413 12.2222 16.3226 11.6948 16.3226 11.1481C16.3226 10.6015 16.1413 10.0741 15.8133 9.66667ZM9 14.8519H5C4.82319 14.8519 4.65362 14.7738 4.5286 14.6349C4.40357 14.496 4.33333 14.3076 4.33333 14.1111C4.33333 13.9147 4.40357 13.7262 4.5286 13.5873C4.65362 13.4484 4.82319 13.3704 5 13.3704H9C9.17681 13.3704 9.34638 13.4484 9.4714 13.5873C9.59643 13.7262 9.66667 13.9147 9.66667 14.1111C9.66667 14.3076 9.59643 14.496 9.4714 14.6349C9.34638 14.7738 9.17681 14.8519 9 14.8519ZM9 11.8889H5C4.82319 11.8889 4.65362 11.8108 4.5286 11.6719C4.40357 11.533 4.33333 11.3446 4.33333 11.1481C4.33333 10.9517 4.40357 10.7633 4.5286 10.6244C4.65362 10.4854 4.82319 10.4074 5 10.4074H9C9.17681 10.4074 9.34638 10.4854 9.4714 10.6244C9.59643 10.7633 9.66667 10.9517 9.66667 11.1481C9.66667 11.3446 9.59643 11.533 9.4714 11.6719C9.34638 11.8108 9.17681 11.8889 9 11.8889ZM9 8.92593H5C4.82319 8.92593 4.65362 8.84788 4.5286 8.70897C4.40357 8.57005 4.33333 8.38164 4.33333 8.18518C4.33333 7.98873 4.40357 7.80032 4.5286 7.6614C4.65362 7.52249 4.82319 7.44444 5 7.44444H9C9.17681 7.44444 9.34638 7.52249 9.4714 7.6614C9.59643 7.80032 9.66667 7.98873 9.66667 8.18518C9.66667 8.38164 9.59643 8.57005 9.4714 8.70897C9.34638 8.84788 9.17681 8.92593 9 8.92593ZM9 5.96296H5C4.82319 5.96296 4.65362 5.88492 4.5286 5.746C4.40357 5.60709 4.33333 5.41868 4.33333 5.22222C4.33333 5.02577 4.40357 4.83736 4.5286 4.69844C4.65362 4.55952 4.82319 4.48148 5 4.48148H9C9.17681 4.48148 9.34638 4.55952 9.4714 4.69844C9.59643 4.83736 9.66667 5.02577 9.66667 5.22222C9.66667 5.41868 9.59643 5.60709 9.4714 5.746C9.34638 5.88492 9.17681 5.96296 9 5.96296ZM14.7933 14.637C14.7342 14.7063 14.6628 14.7612 14.5836 14.7981C14.5045 14.8351 14.4192 14.8534 14.3333 14.8519H10.88C11.0399 14.374 11.0399 13.8482 10.88 13.3704H14.3333C14.5101 13.3704 14.6797 13.4484 14.8047 13.5873C14.9298 13.7262 15 13.9147 15 14.1111C14.9988 14.2096 14.9799 14.3069 14.9444 14.3972C14.9089 14.4875 14.8575 14.5691 14.7933 14.637ZM14.7933 11.6741C14.7342 11.7433 14.6628 11.7982 14.5836 11.8352C14.5045 11.8721 14.4192 11.8904 14.3333 11.8889H10.88C11.0399 11.411 11.0399 10.8853 10.88 10.4074H14.3333C14.5101 10.4074 14.6797 10.4854 14.8047 10.6244C14.9298 10.7633 15 10.9517 15 11.1481C14.9988 11.2467 14.9799 11.3439 14.9444 11.4343C14.9089 11.5246 14.8575 11.6061 14.7933 11.6741ZM14.7933 8.71111C14.7342 8.78037 14.6628 8.83523 14.5836 8.87221C14.5045 8.90918 14.4192 8.92748 14.3333 8.92593H10.88C11.0399 8.44807 11.0399 7.9223 10.88 7.44444H14.3333C14.5101 7.44444 14.6797 7.52249 14.8047 7.6614C14.9298 7.80032 15 7.98873 15 8.18518C14.9988 8.28372 14.9799 8.38098 14.9444 8.47129C14.9089 8.5616 14.8575 8.64313 14.7933 8.71111Z" fill="#1D1D1D"/>
</g>
<defs>
<clipPath id="clip0_889_25307">
<rect width="20" height="20" fill="white"/>
</clipPath>
</defs>
</svg>
