<svg width="16" height="16" viewBox="0 0 16 16" fill="none" xmlns="http://www.w3.org/2000/svg">
<path d="M13.9004 13.291C14.041 13.416 14.041 13.5488 13.9004 13.6895L13.6895 13.9004C13.5488 14.041 13.416 14.041 13.291 13.9004L10.2676 10.9004C10.2051 10.8379 10.1738 10.7676 10.1738 10.6895V10.4551C9.23633 11.3145 8.13477 11.7441 6.86914 11.7441C5.52539 11.7441 4.37695 11.2676 3.42383 10.3145C2.4707 9.36133 1.99414 8.21289 1.99414 6.86914C1.99414 5.52539 2.4707 4.37695 3.42383 3.42383C4.37695 2.4707 5.52539 1.99414 6.86914 1.99414C8.21289 1.99414 9.36133 2.4707 10.3145 3.42383C11.2676 4.37695 11.7441 5.52539 11.7441 6.86914C11.7441 8.13477 11.3145 9.23633 10.4551 10.1738H10.6895C10.7676 10.1738 10.8379 10.2051 10.9004 10.2676L13.9004 13.291ZM3.93945 9.79883C4.75195 10.5957 5.72852 10.9941 6.86914 10.9941C8.00977 10.9941 8.97852 10.5957 9.77539 9.79883C10.5879 8.98633 10.9941 8.00977 10.9941 6.86914C10.9941 5.72852 10.5879 4.75977 9.77539 3.96289C8.97852 3.15039 8.00977 2.74414 6.86914 2.74414C5.72852 2.74414 4.75195 3.15039 3.93945 3.96289C3.14258 4.75977 2.74414 5.72852 2.74414 6.86914C2.74414 8.00977 3.14258 8.98633 3.93945 9.79883Z" fill="#5C6672"/>
</svg>
