<svg width="19" height="18" viewBox="0 0 19 18" fill="none" xmlns="http://www.w3.org/2000/svg">
<rect width="19" height="18" fill="#3C3C3C"/>
<path d="M-4489 -14144C-4489 -14145.1 -4488.1 -14146 -4487 -14146H25509C25510.1 -14146 25511 -14145.1 25511 -14144V35900C25511 35901.1 25510.1 35902 25509 35902H-4487C-4488.11 35902 -4489 35901.1 -4489 35900V-14144Z" fill="#1D2026"/>
<g clip-path="url(#clip0_105_48)">
<rect width="1440" height="1087" transform="translate(-641 -1007)" fill="#F9F8F8"/>
<rect x="-495.25" y="-16.0996" width="534.5" height="50.5" rx="5.25" fill="white"/>
<path d="M8.875 3.38368V2.77827L8.44784 3.20729L6.44447 5.21941C6.44445 5.21943 6.44444 5.21944 6.44442 5.21946C6.38606 5.27781 6.31679 5.32409 6.24055 5.35567C6.16428 5.38726 6.08255 5.40351 6 5.40351C5.91745 5.40351 5.83572 5.38726 5.75945 5.35567C5.68319 5.32408 5.6139 5.27778 5.55553 5.21941C5.49716 5.16104 5.45086 5.09174 5.41927 5.01548C5.38768 4.93922 5.37142 4.85748 5.37142 4.77493C5.37142 4.69239 5.38768 4.61065 5.41927 4.53439C5.45086 4.45812 5.49716 4.38883 5.55553 4.33046L9.05343 0.832555C9.11248 0.776476 9.18193 0.732472 9.25788 0.703026L9.25789 0.703072L9.2625 0.70118C9.41466 0.638669 9.58534 0.638669 9.7375 0.70118L9.73748 0.701226L9.74212 0.703026C9.81807 0.732472 9.88752 0.776476 9.94657 0.832556L13.4445 4.33046L13.4452 4.33118C13.5038 4.38929 13.5503 4.45841 13.582 4.53457C13.6137 4.61073 13.6301 4.69243 13.6301 4.77493C13.6301 4.85744 13.6137 4.93913 13.582 5.01529C13.5503 5.09145 13.5038 5.16058 13.4452 5.21868L13.4437 5.22013C13.3856 5.27871 13.3165 5.32521 13.2404 5.35694C13.1642 5.38867 13.0825 5.40501 13 5.40501C12.9175 5.40501 12.8358 5.38867 12.7596 5.35694C12.6835 5.32521 12.6144 5.27871 12.5563 5.22013L12.5559 5.21979L10.5522 3.20729L10.125 2.77827V3.38368V11.7749C10.125 11.9407 10.0592 12.0997 9.94194 12.2169C9.82473 12.3341 9.66576 12.3999 9.5 12.3999C9.33424 12.3999 9.17527 12.3341 9.05806 12.2169C8.94085 12.0997 8.875 11.9407 8.875 11.7749V3.38368ZM16.9331 11.333C17.0503 11.2158 17.2092 11.1499 17.375 11.1499C17.5408 11.1499 17.6997 11.2158 17.8169 11.333C17.9342 11.4502 18 11.6092 18 11.7749V15.2749C18 15.9048 17.7498 16.5089 17.3044 16.9543C16.859 17.3997 16.2549 17.6499 15.625 17.6499H3.375C2.74511 17.6499 2.14102 17.3997 1.69562 16.9543C1.25022 16.5089 1 15.9048 1 15.2749V11.7749C1 11.6092 1.06585 11.4502 1.18306 11.333C1.30027 11.2158 1.45924 11.1499 1.625 11.1499C1.79076 11.1499 1.94973 11.2158 2.06694 11.333C2.18415 11.4502 2.25 11.6092 2.25 11.7749V15.2749C2.25 15.5733 2.36853 15.8595 2.57951 16.0704C2.79048 16.2814 3.07663 16.3999 3.375 16.3999H15.625C15.9234 16.3999 16.2095 16.2814 16.4205 16.0704C16.6315 15.8595 16.75 15.5733 16.75 15.2749V11.7749C16.75 11.6092 16.8158 11.4502 16.9331 11.333Z" fill="black" stroke="white" stroke-width="0.5"/>
<rect x="-495.25" y="-16.0996" width="534.5" height="50.5" rx="5.25" stroke="#989898" stroke-width="1.5"/>
</g>
<path d="M-4487 -14145H25509V-14147H-4487V-14145ZM25510 -14144V35900H25512V-14144H25510ZM25509 35901H-4487V35903H25509V35901ZM-4488 35900V-14144H-4490V35900H-4488ZM-4487 35901C-4487.55 35901 -4488 35900.6 -4488 35900H-4490C-4490 35901.7 -4488.66 35903 -4487 35903V35901ZM25510 35900C25510 35900.6 25509.6 35901 25509 35901V35903C25510.7 35903 25512 35901.7 25512 35900H25510ZM25509 -14145C25509.6 -14145 25510 -14144.6 25510 -14144H25512C25512 -14145.7 25510.7 -14147 25509 -14147V-14145ZM-4487 -14147C-4488.66 -14147 -4490 -14145.7 -4490 -14144H-4488C-4488 -14144.6 -4487.55 -14145 -4487 -14145V-14147Z" fill="white" fill-opacity="0.1"/>
<defs>
<clipPath id="clip0_105_48">
<rect width="1440" height="1087" fill="white" transform="translate(-641 -1007)"/>
</clipPath>
</defs>
</svg>
