<svg width="20" height="20" viewBox="0 0 20 20" fill="none" xmlns="http://www.w3.org/2000/svg">
<path d="M17.943 5.95833C17.8163 5.88519 17.6726 5.84669 17.5263 5.84669C17.38 5.84669 17.2363 5.88519 17.1096 5.95833L14.168 7.40833C14.1442 6.76131 13.8704 6.14873 13.4041 5.69953C12.9378 5.25034 12.3154 4.99957 11.668 5H4.16797C3.50493 5 2.86904 5.26339 2.4002 5.73223C1.93136 6.20107 1.66797 6.83696 1.66797 7.5V12.5C1.66797 13.163 1.93136 13.7989 2.4002 14.2678C2.86904 14.7366 3.50493 15 4.16797 15H11.668C12.3154 15.0004 12.9378 14.7497 13.4041 14.3005C13.8704 13.8513 14.1442 13.2387 14.168 12.5917L17.1346 14.075C17.2482 14.1332 17.3737 14.1646 17.5013 14.1667C17.6573 14.1672 17.8103 14.1239 17.943 14.0417C18.0631 13.9666 18.162 13.8622 18.2306 13.7382C18.2991 13.6143 18.3349 13.475 18.3346 13.3333V6.66667C18.3349 6.52505 18.2991 6.38569 18.2306 6.26176C18.162 6.13782 18.0631 6.03339 17.943 5.95833ZM12.5013 12.5C12.5013 12.721 12.4135 12.933 12.2572 13.0893C12.1009 13.2455 11.889 13.3333 11.668 13.3333H4.16797C3.94695 13.3333 3.73499 13.2455 3.57871 13.0893C3.42243 12.933 3.33464 12.721 3.33464 12.5V7.5C3.33464 7.27899 3.42243 7.06703 3.57871 6.91075C3.73499 6.75446 3.94695 6.66667 4.16797 6.66667H11.668C11.889 6.66667 12.1009 6.75446 12.2572 6.91075C12.4135 7.06703 12.5013 7.27899 12.5013 7.5V12.5ZM16.668 11.9833L14.168 10.7333V9.26667L16.668 8.01667V11.9833Z" fill="#1D1D1D"/>
</svg>
